<svg xmlns="http://www.w3.org/2000/svg" viewBox="0 0 760 520"><rect width="760" height="520" fill="#152018"/><polyline points="571.8,48.2 568.2,48.2 564.5,48.2 560.8,48.2 557.1,48.2 553.5,48.2 549.8,48.2 546.1,48.2 542.4,48.2 538.8,48.2 535.1,48.2 531.4,48.2 527.8,48.2 524.1,48.2 520.4,48.2 516.7,48.2 513.1,48.2 509.4,48.2 505.7,48.2 502.0,48.2 498.4,48.2 494.7,48.2 491.0,48.2 487.3,48.2 483.7,48.2 480.0,48.2 476.3,48.2 472.6,48.2 469.0,48.2 465.3,48.2 461.6,48.2 457.9,48.2 454.3,48.2 450.6,48.2 446.9,48.2 443.2,48.2 439.6,48.2 435.9,48.2 432.2,48.2 428.5,48.2 424.9,48.2 421.2,48.2 417.5,48.2 413.8,48.2 410.2,48.2 406.5,48.2 402.8,48.2 399.1,48.2 395.5,48.2 391.8,48.2 388.1,48.2 384.5,48.2 380.8,48.2 377.1,48.2 373.4,48.2 369.8,48.2 366.1,48.2 362.4,48.2 358.7,48.2 355.1,48.2 351.4,48.2 347.7,48.2 344.0,48.2 340.4,48.2 336.7,48.2 333.0,48.2 329.3,48.2 325.7,48.2 322.0,48.2 318.3,48.2 314.6,48.2 311.0,48.2 307.3,48.1 303.6,48.1 299.9,48.1 296.3,48.1 292.6,48.1 288.9,48.1 285.2,48.1 281.6,48.1 277.9,48.0 274.2,48.0 270.5,48.0 266.9,48.0 263.2,48.0 259.5,48.1 255.8,48.1 252.2,48.1 248.5,48.1 244.8,48.1 241.2,48.2 237.5,48.2 233.8,48.2 230.1,48.3 226.5,48.3 222.8,48.3 219.1,48.3 215.4,48.3 211.8,48.3 208.1,48.3 204.4,48.4 200.7,48.4 197.1,48.4 193.4,48.5 189.7,48.5 186.0,48.6 182.4,48.7 178.7,48.8 175.0,48.9 171.3,49.0 167.7,49.2 164.0,49.3 160.3,49.6 156.7,49.8 153.0,50.1 149.3,50.4 145.7,50.7 142.0,51.0 138.4,51.3 134.7,51.6 131.0,52.0 127.4,52.3 123.7,52.7 120.1,53.2 116.4,53.6 112.8,54.1 109.2,54.6 105.5,55.2 101.9,55.9 98.3,56.6 94.7,57.3 91.1,58.2 87.6,59.1 84.1,60.1 80.5,61.2 77.0,62.3 73.5,63.5 70.1,64.7 66.6,65.9 63.2,67.2 59.8,68.7 56.4,70.2 53.1,71.8 49.9,73.5 46.7,75.4 43.7,77.4 40.8,79.6 38.1,82.1 35.5,84.7 33.1,87.5 30.8,90.4 28.8,93.5 27.0,96.7 25.5,100.0 24.5,103.6 24.0,107.2 24.3,110.8 25.4,114.4 26.8,117.7 28.7,120.9 30.8,123.9 33.1,126.8 35.6,129.5 38.3,131.9 41.3,134.1 44.4,136.0 47.7,137.6 51.2,138.9 54.6,140.1 58.2,141.0 61.8,141.7 65.4,142.2 69.1,142.4 72.8,142.3 76.4,141.8 80.0,140.9 83.5,139.7 86.8,138.3 90.2,136.7 93.4,135.0 96.7,133.3 99.9,131.5 103.1,129.8 106.4,128.0 109.5,126.1 112.5,124.1 115.5,121.9 118.5,119.8 121.4,117.6 124.4,115.4 127.4,113.3 130.5,111.3 133.7,109.5 137.0,107.9 140.4,106.6 143.9,105.3 147.4,104.2 150.9,103.2 154.5,102.4 158.1,101.6 161.7,101.0 165.4,100.6 169.0,100.3 172.7,100.1 176.4,100.1 180.1,100.3 183.7,100.6 187.4,101.1 191.0,101.6 194.6,102.4 198.2,103.2 201.7,104.0 205.3,105.0 208.8,106.0 212.3,107.1 215.8,108.3 219.3,109.5 222.7,110.8 226.2,112.1 229.6,113.5 232.9,114.9 236.3,116.5 239.6,118.0 242.9,119.7 246.1,121.4 249.3,123.2 252.5,125.0 255.6,127.0 258.7,129.0 261.6,131.2 264.5,133.5 267.3,136.0 269.9,138.5 272.5,141.1 275.1,143.7 277.6,146.4 280.1,149.1 282.7,151.7 285.2,154.3 287.9,156.9 290.6,159.4 293.4,161.7 296.3,164.0 299.2,166.3 302.1,168.5 305.0,170.7 308.0,172.9 310.9,175.2 313.7,177.5 316.4,180.0 319.0,182.6 321.5,185.3 323.7,188.3 325.6,191.4 327.0,194.8 328.2,198.3 329.1,201.8 329.9,205.4 330.7,209.0 331.5,212.6 332.5,216.1 333.7,219.6 335.3,222.9 337.3,226.0 339.6,228.8 342.1,231.5 344.7,234.1 347.4,236.6 350.1,239.1 352.8,241.6 355.5,244.1 358.0,246.8 360.4,249.6 362.2,252.8 362.1,256.3 359.4,258.8 356.1,260.3 352.5,261.4 349.0,262.2 345.3,262.8 341.7,263.4 338.1,263.9 334.4,264.3 330.8,264.7 327.1,265.1 323.5,265.6 319.8,266.0 316.2,266.6 312.5,267.3 309.0,268.2 305.5,269.3 302.0,270.5 298.5,271.6 295.0,272.5 291.4,273.1 287.7,273.1 284.1,272.5 280.5,271.6 277.1,270.2 273.8,268.7 270.5,266.9 267.4,265.0 264.4,263.0 261.4,260.8 258.5,258.5 255.7,256.1 253.1,253.6 250.6,250.9 248.2,248.1 246.0,245.2 244.0,242.1 242.4,238.8 241.0,235.4 240.0,231.8 239.2,228.2 238.9,224.6 239.0,220.9 239.8,217.3 241.2,213.9 243.0,210.7 245.1,207.8 247.6,205.0 250.2,202.5 253.2,200.4 256.6,198.9 260.1,197.9 263.7,196.9 267.2,195.8 270.5,194.4 273.7,192.5 276.6,190.2 279.3,187.8 281.9,185.1 284.4,182.4 286.7,179.6 289.1,176.8 291.4,173.9 293.6,171.0 295.9,168.1 298.2,165.3 300.5,162.4 302.9,159.6 305.3,156.8 307.7,154.1 310.2,151.4 312.8,148.8 315.3,146.1 317.9,143.4 320.4,140.8 322.9,138.1 325.4,135.4 327.9,132.7 330.5,130.1 333.0,127.4 335.5,124.7 338.1,122.1 340.7,119.5 343.3,116.9 345.9,114.3 348.5,111.7 351.2,109.2 353.9,106.7 356.6,104.3 359.4,101.8 362.2,99.4 365.0,97.1 367.9,94.8 370.8,92.6 373.8,90.5 376.8,88.4 380.0,86.4 383.1,84.5 386.2,82.6 389.4,80.7 392.5,78.9 395.7,77.0 398.9,75.3 402.2,73.5 405.4,71.8 408.7,70.2 412.0,68.6 415.4,67.1 418.8,65.7 422.2,64.3 425.6,63.0 429.1,61.9 432.6,60.8 436.2,59.9 439.8,59.1 443.4,58.5 447.1,58.0 450.7,57.8 454.4,57.7 458.1,57.9 461.7,58.3 465.3,59.0 468.9,59.8 472.4,60.9 475.9,62.1 479.3,63.4 482.7,64.9 486.0,66.4 489.3,68.1 492.5,69.8 495.7,71.6 498.9,73.5 502.1,75.4 505.2,77.3 508.3,79.3 511.3,81.3 514.4,83.4 517.4,85.4 520.5,87.5 523.5,89.6 526.5,91.6 529.6,93.7 532.6,95.7 535.7,97.8 538.7,99.8 541.8,101.9 544.8,104.0 547.7,106.2 550.7,108.4 553.6,110.6 556.6,112.8 559.5,115.0 562.3,117.3 565.2,119.6 568.0,122.0 570.8,124.4 573.6,126.8 576.4,129.2 579.1,131.7 581.8,134.2 584.4,136.7 587.0,139.3 589.6,141.9 592.2,144.5 594.7,147.2 597.2,149.9 599.6,152.7 602.0,155.5 604.4,158.3 606.7,161.1 609.0,164.0 611.3,166.9 613.6,169.8 615.8,172.7 618.0,175.6 620.1,178.6 622.3,181.6 624.3,184.6 626.4,187.7 628.4,190.8 630.4,193.9 632.3,197.0 634.2,200.2 636.0,203.3 637.8,206.6 639.5,209.8 641.2,213.1 642.8,216.4 644.3,219.7 645.7,223.1 647.1,226.5 648.4,229.9 649.6,233.4 650.8,236.9 651.9,240.4 652.9,243.9 653.8,247.5 654.7,251.1 655.5,254.6 656.3,258.2 657.0,261.9 657.6,265.5 658.1,269.1 658.5,272.8 658.9,276.4 659.2,280.1 659.4,283.7 659.5,287.4 659.5,291.1 659.5,294.8 659.3,298.4 659.0,302.1 658.6,305.8 658.1,309.4 657.6,313.0 657.0,316.7 656.5,320.3 655.9,323.9 655.2,327.5 654.4,331.1 653.6,334.7 652.7,338.3 651.6,341.8 650.4,345.3 649.1,348.7 647.7,352.1 646.0,355.4 644.2,358.6 642.3,361.7 640.1,364.6 637.7,367.4 635.2,370.1 632.5,372.6 629.7,374.8 626.6,376.9 623.4,378.8 620.1,380.4 616.8,381.9 613.4,383.2 609.9,384.5 606.4,385.6 602.8,386.6 599.3,387.6 595.8,388.5 592.2,389.3 588.6,390.1 585.0,390.8 581.3,391.5 577.7,392.1 574.1,392.7 570.5,393.3 566.8,393.8 563.2,394.3 559.6,394.8 555.9,395.2 552.3,395.6 548.6,396.0 544.9,396.4 541.3,396.8 537.6,397.1 534.0,397.4 530.3,397.7 526.6,398.0 523.0,398.3 519.3,398.5 515.6,398.8 512.0,399.0 508.3,399.2 504.6,399.4 501.0,399.6 497.3,399.8 493.6,399.9 490.0,400.1 486.3,400.2 482.6,400.3 478.9,400.5 475.3,400.6 471.6,400.7 467.9,400.8 464.2,400.9 460.6,401.0 456.9,401.0 453.2,401.1 449.5,401.2 445.9,401.2 442.2,401.3 438.5,401.3 434.8,401.4 431.2,401.4 427.5,401.5 423.8,401.5 420.1,401.5 416.5,401.6 412.8,401.6 409.1,401.6 405.4,401.7 401.8,401.7 398.1,401.8 394.4,401.9 390.8,402.0 387.1,402.1 383.4,402.1 379.7,402.1 376.1,401.9 372.4,401.6 368.8,401.2 365.1,400.6 361.6,399.8 358.0,398.9 354.5,397.8 351.0,396.6 347.6,395.2 344.2,393.8 340.9,392.2 337.6,390.6 334.3,388.9 331.1,387.1 328.0,385.1 325.0,383.0 322.1,380.8 319.1,378.6 316.2,376.4 313.3,374.1 310.4,371.9 307.4,369.8 304.4,367.7 301.3,365.6 298.3,363.6 295.2,361.6 292.1,359.5 289.1,357.6 285.9,355.6 282.8,353.7 279.6,351.9 276.4,350.1 273.1,348.4 269.9,346.7 266.6,345.1 263.3,343.5 260.0,341.9 256.6,340.3 253.3,338.7 250.0,337.1 246.8,335.4 243.5,333.8 240.2,332.1 237.0,330.4 233.7,328.7 230.4,327.0 227.2,325.3 223.9,323.7 220.6,322.1 217.2,320.5 213.9,319.0 210.5,317.6 207.1,316.2 203.7,314.8 200.3,313.5 196.8,312.2 193.4,310.9 189.9,309.7 186.5,308.5 183.0,307.4 179.5,306.3 175.9,305.2 172.4,304.4 168.8,303.6 165.2,302.9 161.5,302.2 157.9,301.6 154.3,300.9 150.7,300.1 147.2,299.3 143.6,298.2 140.1,297.1 136.7,295.9 133.2,294.6 129.8,293.3 126.4,291.9 123.0,290.4 119.7,288.8 116.5,287.1 113.3,285.2 110.3,283.2 107.3,281.1 104.3,278.9 101.4,276.6 98.6,274.2 95.9,271.7 93.4,269.1 90.9,266.3 88.7,263.4 86.7,260.3 84.9,257.1 83.3,253.8 81.9,250.4 80.7,246.9 79.9,243.4 79.6,239.7 79.8,236.0 80.7,232.5 82.1,229.1 83.9,225.9 86.0,222.9 88.3,220.0 90.9,217.4 93.7,215.0 96.7,213.0 100.0,211.2 103.3,209.7 106.8,208.4 110.3,207.4 113.9,206.6 117.5,206.0 121.2,205.8 124.8,205.9 128.5,206.3 132.1,206.9 135.7,207.8 139.2,208.8 142.7,209.9 146.2,211.1 149.6,212.3 153.1,213.6 156.5,215.0 159.8,216.5 163.1,218.1 166.4,219.8 169.6,221.6 172.8,223.4 176.0,225.2 179.2,227.1 182.3,229.0 185.5,230.8 188.7,232.6 191.9,234.4 195.2,236.1 198.4,237.8 201.6,239.6 204.8,241.5 207.9,243.5 210.9,245.6 213.8,247.9 216.5,250.3 219.0,253.0 221.3,255.9 223.3,258.9 225.3,262.1 227.1,265.2 228.9,268.5 230.7,271.7 232.5,274.9 234.3,278.1 236.2,281.2 238.3,284.2 240.5,287.1 243.0,289.9 245.8,292.3 248.9,294.2 252.3,295.5 255.9,296.0 259.6,296.0 263.3,295.7 266.9,295.1 270.5,294.3 274.1,293.6 277.7,292.9 281.3,292.4 285.0,292.1 288.7,292.1 292.3,292.6 295.8,293.7 299.1,295.4 302.0,297.7 304.6,300.2 307.0,303.0 309.2,306.0 311.2,309.0 313.1,312.2 315.0,315.3 316.8,318.5 318.5,321.8 320.2,325.0 321.9,328.3 323.7,331.5 325.4,334.8 327.2,338.0 329.0,341.2 330.9,344.3 332.8,347.4 334.9,350.5 337.1,353.4 339.5,356.2 342.0,358.9 344.7,361.4 347.7,363.6 350.8,365.4 354.2,366.8 357.8,367.8 361.4,368.4 365.1,368.7 368.7,368.8 372.4,368.6 376.1,368.3 379.7,367.8 383.3,367.3 387.0,366.6 390.6,366.0 394.2,365.3 397.8,364.6 401.4,363.9 405.0,363.2 408.6,362.6 412.3,362.0 415.9,361.5 419.6,361.2 423.2,360.9 426.9,360.9 430.6,361.0 434.2,361.4 437.8,362.1 441.4,363.0 444.8,364.4 448.1,366.0 451.2,368.0 454.1,370.3 456.8,372.7 459.3,375.4 461.7,378.2 464.0,381.0 466.2,384.0 468.3,387.0 470.3,390.1 472.2,393.3 474.0,396.4 475.8,399.6 477.6,402.9 479.3,406.1 481.0,409.4 482.6,412.7 484.3,416.0 485.9,419.3 487.5,422.6 489.1,425.9 490.7,429.2 492.3,432.5 493.9,435.8 495.5,439.1 497.1,442.4 498.7,445.7 500.4,449.0 502.1,452.2 503.8,455.5 505.6,458.7 507.4,461.9 509.3,465.0 511.3,468.1 513.3,471.2 515.5,474.2 517.7,477.1 520.1,479.9 522.6,482.6 525.3,485.0 528.2,487.3 531.3,489.3 534.6,490.9 538.1,492.2 541.6,493.3 545.1,494.2 548.7,494.9 552.4,495.4 556.0,495.8 559.7,496.0 563.4,496.0 567.0,495.9 570.7,495.6 574.4,495.2 578.0,494.7 581.6,494.1 585.2,493.3 588.8,492.5 592.3,491.6 595.9,490.5 599.4,489.4 602.8,488.2 606.3,486.9 609.7,485.5 613.0,484.0 616.4,482.5 619.6,480.8 622.9,479.1 626.1,477.2 629.2,475.3 632.2,473.2 635.2,471.1 638.2,468.9 641.0,466.6 643.9,464.3 646.6,461.9 649.3,459.4 652.0,456.8 654.6,454.2 657.2,451.6 659.7,448.9 662.1,446.2 664.5,443.4 666.9,440.6 669.2,437.7 671.5,434.8 673.7,431.9 675.9,428.9 678.0,425.9 680.1,422.9 682.1,419.9 684.1,416.8 686.0,413.6 687.9,410.5 689.8,407.3 691.6,404.1 693.3,400.9 695.0,397.6 696.7,394.4 698.3,391.1 699.9,387.7 701.4,384.4 702.9,381.0 704.3,377.7 705.7,374.2 707.0,370.8 708.3,367.4 709.6,363.9 710.9,360.5 712.1,357.0 713.2,353.5 714.4,350.0 715.5,346.5 716.6,343.0 717.6,339.5 718.7,336.0 719.7,332.4 720.6,328.9 721.6,325.3 722.5,321.8 723.4,318.2 724.2,314.6 725.0,311.1 725.8,307.5 726.6,303.9 727.4,300.3 728.1,296.7 728.8,293.1 729.4,289.5 730.1,285.8 730.7,282.2 731.3,278.6 731.8,275.0 732.3,271.3 732.8,267.7 733.3,264.0 733.7,260.4 734.1,256.7 734.5,253.1 734.8,249.4 735.1,245.8 735.3,242.1 735.5,238.4 735.7,234.7 735.9,231.1 735.9,227.4 736.0,223.7 736.0,220.1 735.9,216.4 735.8,212.7 735.7,209.0 735.5,205.4 735.2,201.7 734.9,198.1 734.5,194.4 734.1,190.7 733.7,187.1 733.2,183.4 732.7,179.8 732.2,176.2 731.6,172.5 731.0,168.9 730.4,165.3 729.7,161.7 729.0,158.1 728.3,154.5 727.5,150.9 726.7,147.3 725.9,143.7 725.0,140.2 724.1,136.6 723.1,133.0 722.2,129.5 721.1,126.0 720.1,122.4 719.0,118.9 717.9,115.4 716.7,112.0 715.5,108.5 714.2,105.0 712.9,101.6 711.6,98.2 710.1,94.8 708.7,91.4 707.1,88.1 705.6,84.8 703.9,81.5 702.2,78.2 700.4,75.0 698.5,71.9 696.5,68.8 694.5,65.7 692.3,62.8 690.0,59.9 687.6,57.1 685.1,54.5 682.4,52.0 679.5,49.6 676.5,47.5 673.4,45.7 670.0,44.1 666.6,42.9 663.0,41.9 659.4,41.1 655.8,40.6 652.2,40.3 648.5,40.1 644.8,40.1 641.1,40.1 637.5,40.3 633.8,40.6 630.1,41.0 626.5,41.4 622.8,41.8 619.2,42.4 615.6,42.9 611.9,43.5 608.3,44.0 604.7,44.6 601.1,45.2 597.4,45.7 593.8,46.3 590.1,46.8 586.5,47.2 582.8,47.6 579.2,47.9 575.5,48.1" fill="none" stroke="#f3e8c8" stroke-width="12" stroke-linejoin="round" stroke-linecap="round"/><polyline points="571.8,48.2 568.2,48.2 564.5,48.2 560.8,48.2 557.1,48.2 553.5,48.2 549.8,48.2 546.1,48.2 542.4,48.2 538.8,48.2 535.1,48.2 531.4,48.2 527.8,48.2 524.1,48.2 520.4,48.2 516.7,48.2 513.1,48.2 509.4,48.2 505.7,48.2 502.0,48.2 498.4,48.2 494.7,48.2 491.0,48.2 487.3,48.2 483.7,48.2 480.0,48.2 476.3,48.2 472.6,48.2 469.0,48.2 465.3,48.2 461.6,48.2 457.9,48.2 454.3,48.2 450.6,48.2 446.9,48.2 443.2,48.2 439.6,48.2 435.9,48.2 432.2,48.2 428.5,48.2 424.9,48.2 421.2,48.2 417.5,48.2 413.8,48.2 410.2,48.2 406.5,48.2 402.8,48.2 399.1,48.2 395.5,48.2 391.8,48.2 388.1,48.2 384.5,48.2 380.8,48.2 377.1,48.2 373.4,48.2 369.8,48.2 366.1,48.2 362.4,48.2 358.7,48.2 355.1,48.2 351.4,48.2 347.7,48.2 344.0,48.2 340.4,48.2 336.7,48.2 333.0,48.2 329.3,48.2 325.7,48.2 322.0,48.2 318.3,48.2 314.6,48.2 311.0,48.2 307.3,48.1 303.6,48.1 299.9,48.1 296.3,48.1 292.6,48.1 288.9,48.1 285.2,48.1 281.6,48.1 277.9,48.0 274.2,48.0 270.5,48.0 266.9,48.0 263.2,48.0 259.5,48.1 255.8,48.1 252.2,48.1 248.5,48.1 244.8,48.1 241.2,48.2 237.5,48.2 233.8,48.2 230.1,48.3 226.5,48.3 222.8,48.3 219.1,48.3 215.4,48.3 211.8,48.3 208.1,48.3 204.4,48.4 200.7,48.4 197.1,48.4 193.4,48.5 189.7,48.5 186.0,48.6 182.4,48.7 178.7,48.8 175.0,48.9 171.3,49.0 167.7,49.2 164.0,49.3 160.3,49.6 156.7,49.8 153.0,50.1 149.3,50.4 145.7,50.7 142.0,51.0 138.4,51.3 134.7,51.6 131.0,52.0 127.4,52.3 123.7,52.7 120.1,53.2 116.4,53.6 112.8,54.1 109.2,54.6 105.5,55.2 101.9,55.9 98.3,56.6 94.7,57.3 91.1,58.2 87.6,59.1 84.1,60.1 80.5,61.2 77.0,62.3 73.5,63.5 70.1,64.7 66.6,65.9 63.2,67.2 59.8,68.7 56.4,70.2 53.1,71.8 49.9,73.5 46.7,75.4 43.7,77.4 40.8,79.6 38.1,82.1 35.5,84.7 33.1,87.5 30.8,90.4 28.8,93.5 27.0,96.7 25.5,100.0 24.5,103.6 24.0,107.2 24.3,110.8 25.4,114.4 26.8,117.7 28.7,120.9 30.8,123.9 33.1,126.8 35.6,129.5 38.3,131.9 41.3,134.1 44.4,136.0 47.7,137.6 51.2,138.9 54.6,140.1 58.2,141.0 61.8,141.7 65.4,142.2 69.1,142.4 72.8,142.3 76.4,141.8 80.0,140.9 83.5,139.7 86.8,138.3 90.2,136.7 93.4,135.0 96.7,133.3 99.9,131.5 103.1,129.8 106.4,128.0 109.5,126.1 112.5,124.1 115.5,121.9 118.5,119.8 121.4,117.6 124.4,115.4 127.4,113.3 130.5,111.3 133.7,109.5 137.0,107.9 140.4,106.6 143.9,105.3 147.4,104.2 150.9,103.2 154.5,102.4 158.1,101.6 161.7,101.0 165.4,100.6 169.0,100.3 172.7,100.1 176.4,100.1 180.1,100.3 183.7,100.6 187.4,101.1 191.0,101.6 194.6,102.4 198.2,103.2 201.7,104.0 205.3,105.0 208.8,106.0 212.3,107.1 215.8,108.3 219.3,109.5 222.7,110.8 226.2,112.1 229.6,113.5 232.9,114.9 236.3,116.5 239.6,118.0 242.9,119.7 246.1,121.4 249.3,123.2 252.5,125.0 255.6,127.0 258.7,129.0 261.6,131.2 264.5,133.5 267.3,136.0 269.9,138.5 272.5,141.1 275.1,143.7 277.6,146.4 280.1,149.1 282.7,151.7 285.2,154.3 287.9,156.9 290.6,159.4 293.4,161.7 296.3,164.0 299.2,166.3 302.1,168.5 305.0,170.7 308.0,172.9 310.9,175.2 313.7,177.5 316.4,180.0 319.0,182.6 321.5,185.3 323.7,188.3 325.6,191.4 327.0,194.8 328.2,198.3 329.1,201.8 329.9,205.4 330.7,209.0 331.5,212.6 332.5,216.1 333.7,219.6 335.3,222.9 337.3,226.0 339.6,228.8 342.1,231.5 344.7,234.1 347.4,236.6 350.1,239.1 352.8,241.6 355.5,244.1 358.0,246.8 360.4,249.6 362.2,252.8 362.1,256.3 359.4,258.8 356.1,260.3 352.5,261.4 349.0,262.2 345.3,262.8 341.7,263.4 338.1,263.9 334.4,264.3 330.8,264.7 327.1,265.1 323.5,265.6 319.8,266.0 316.2,266.6 312.5,267.3 309.0,268.2 305.5,269.3 302.0,270.5 298.5,271.6 295.0,272.5 291.4,273.1 287.7,273.1 284.1,272.5 280.5,271.6 277.1,270.2 273.8,268.7 270.5,266.9 267.4,265.0 264.4,263.0 261.4,260.8 258.5,258.5 255.7,256.1 253.1,253.6 250.6,250.9 248.2,248.1 246.0,245.2 244.0,242.1 242.4,238.8 241.0,235.4 240.0,231.8 239.2,228.2 238.9,224.6 239.0,220.9 239.8,217.3 241.2,213.9 243.0,210.7 245.1,207.8 247.6,205.0 250.2,202.5 253.2,200.4 256.6,198.9 260.1,197.9 263.7,196.9 267.2,195.8 270.5,194.4 273.7,192.5 276.6,190.2 279.3,187.8 281.9,185.1 284.4,182.4 286.7,179.6 289.1,176.8 291.4,173.9 293.6,171.0 295.9,168.1 298.2,165.3 300.5,162.4 302.9,159.6 305.3,156.8 307.7,154.1 310.2,151.4 312.8,148.8 315.3,146.1 317.9,143.4 320.4,140.8 322.9,138.1 325.4,135.4 327.9,132.7 330.5,130.1 333.0,127.4 335.5,124.7 338.1,122.1 340.7,119.5 343.3,116.9 345.9,114.3 348.5,111.7 351.2,109.2 353.9,106.7 356.6,104.3 359.4,101.8 362.2,99.4 365.0,97.1 367.9,94.8 370.8,92.6 373.8,90.5 376.8,88.4 380.0,86.4 383.1,84.5 386.2,82.6 389.4,80.7 392.5,78.9 395.7,77.0 398.9,75.3 402.2,73.5 405.4,71.8 408.7,70.2 412.0,68.6 415.4,67.1 418.8,65.7 422.2,64.3 425.6,63.0 429.1,61.9 432.6,60.8 436.2,59.9 439.8,59.1 443.4,58.5 447.1,58.0 450.7,57.8 454.4,57.7 458.1,57.9 461.7,58.3 465.3,59.0 468.9,59.8 472.4,60.9 475.9,62.1 479.3,63.4 482.7,64.9 486.0,66.4 489.3,68.1 492.5,69.8 495.7,71.6 498.9,73.5 502.1,75.4 505.2,77.3 508.3,79.3 511.3,81.3 514.4,83.4 517.4,85.4 520.5,87.5 523.5,89.6 526.5,91.6 529.6,93.7 532.6,95.7 535.7,97.8 538.7,99.8 541.8,101.9 544.8,104.0 547.7,106.2 550.7,108.4 553.6,110.6 556.6,112.8 559.5,115.0 562.3,117.3 565.2,119.6 568.0,122.0 570.8,124.4 573.6,126.8 576.4,129.2 579.1,131.7 581.8,134.2 584.4,136.7 587.0,139.3 589.6,141.9 592.2,144.5 594.7,147.2 597.2,149.9 599.6,152.7 602.0,155.5 604.4,158.3 606.7,161.1 609.0,164.0 611.3,166.9 613.6,169.8 615.8,172.7 618.0,175.6 620.1,178.6 622.3,181.6 624.3,184.6 626.4,187.7 628.4,190.8 630.4,193.9 632.3,197.0 634.2,200.2 636.0,203.3 637.8,206.6 639.5,209.8 641.2,213.1 642.8,216.4 644.3,219.7 645.7,223.1 647.1,226.5 648.4,229.9 649.6,233.4 650.8,236.9 651.9,240.4 652.9,243.9 653.8,247.5 654.7,251.1 655.5,254.6 656.3,258.2 657.0,261.9 657.6,265.5 658.1,269.1 658.5,272.8 658.9,276.4 659.2,280.1 659.4,283.7 659.5,287.4 659.5,291.1 659.5,294.8 659.3,298.4 659.0,302.1 658.6,305.8 658.1,309.4 657.6,313.0 657.0,316.7 656.5,320.3 655.9,323.9 655.2,327.5 654.4,331.1 653.6,334.7 652.7,338.3 651.6,341.8 650.4,345.3 649.1,348.7 647.7,352.1 646.0,355.4 644.2,358.6 642.3,361.7 640.1,364.6 637.7,367.4 635.2,370.1 632.5,372.6 629.7,374.8 626.6,376.9 623.4,378.8 620.1,380.4 616.8,381.9 613.4,383.2 609.9,384.5 606.4,385.6 602.8,386.6 599.3,387.6 595.8,388.5 592.2,389.3 588.6,390.1 585.0,390.8 581.3,391.5 577.7,392.1 574.1,392.7 570.5,393.3 566.8,393.8 563.2,394.3 559.6,394.8 555.9,395.2 552.3,395.6 548.6,396.0 544.9,396.4 541.3,396.8 537.6,397.1 534.0,397.4 530.3,397.7 526.6,398.0 523.0,398.3 519.3,398.5 515.6,398.8 512.0,399.0 508.3,399.2 504.6,399.4 501.0,399.6 497.3,399.8 493.6,399.9 490.0,400.1 486.3,400.2 482.6,400.3 478.9,400.5 475.3,400.6 471.6,400.7 467.9,400.8 464.2,400.9 460.6,401.0 456.9,401.0 453.2,401.1 449.5,401.2 445.9,401.2 442.2,401.3 438.5,401.3 434.8,401.4 431.2,401.4 427.5,401.5 423.8,401.5 420.1,401.5 416.5,401.6 412.8,401.6 409.1,401.6 405.4,401.7 401.8,401.7 398.1,401.8 394.4,401.9 390.8,402.0 387.1,402.1 383.4,402.1 379.7,402.1 376.1,401.9 372.4,401.6 368.8,401.2 365.1,400.6 361.6,399.8 358.0,398.9 354.5,397.8 351.0,396.6 347.6,395.2 344.2,393.8 340.9,392.2 337.6,390.6 334.3,388.9 331.1,387.1 328.0,385.1 325.0,383.0 322.1,380.8 319.1,378.6 316.2,376.4 313.3,374.1 310.4,371.9 307.4,369.8 304.4,367.7 301.3,365.6 298.3,363.6 295.2,361.6 292.1,359.5 289.1,357.6 285.9,355.6 282.8,353.7 279.6,351.9 276.4,350.1 273.1,348.4 269.9,346.7 266.6,345.1 263.3,343.5 260.0,341.9 256.6,340.3 253.3,338.7 250.0,337.1 246.8,335.4 243.5,333.8 240.2,332.1 237.0,330.4 233.7,328.7 230.4,327.0 227.2,325.3 223.9,323.7 220.6,322.1 217.2,320.5 213.9,319.0 210.5,317.6 207.1,316.2 203.7,314.8 200.3,313.5 196.8,312.2 193.4,310.9 189.9,309.7 186.5,308.5 183.0,307.4 179.5,306.3 175.9,305.2 172.4,304.4 168.8,303.6 165.2,302.9 161.5,302.2 157.9,301.6 154.3,300.9 150.7,300.1 147.2,299.3 143.6,298.2 140.1,297.1 136.7,295.9 133.2,294.6 129.8,293.3 126.4,291.9 123.0,290.4 119.7,288.8 116.5,287.1 113.3,285.2 110.3,283.2 107.3,281.1 104.3,278.9 101.4,276.6 98.6,274.2 95.9,271.7 93.4,269.1 90.9,266.3 88.7,263.4 86.7,260.3 84.9,257.1 83.3,253.8 81.9,250.4 80.7,246.9 79.9,243.4 79.6,239.7 79.8,236.0 80.7,232.5 82.1,229.1 83.9,225.9 86.0,222.9 88.3,220.0 90.9,217.4 93.7,215.0 96.7,213.0 100.0,211.2 103.3,209.7 106.8,208.4 110.3,207.4 113.9,206.6 117.5,206.0 121.2,205.8 124.8,205.9 128.5,206.3 132.1,206.9 135.7,207.8 139.2,208.8 142.7,209.9 146.2,211.1 149.6,212.3 153.1,213.6 156.5,215.0 159.8,216.5 163.1,218.1 166.4,219.8 169.6,221.6 172.8,223.4 176.0,225.2 179.2,227.1 182.3,229.0 185.5,230.8 188.7,232.6 191.9,234.4 195.2,236.1 198.4,237.8 201.6,239.6 204.8,241.5 207.9,243.5 210.9,245.6 213.8,247.9 216.5,250.3 219.0,253.0 221.3,255.9 223.3,258.9 225.3,262.1 227.1,265.2 228.9,268.5 230.7,271.7 232.5,274.9 234.3,278.1 236.2,281.2 238.3,284.2 240.5,287.1 243.0,289.9 245.8,292.3 248.9,294.2 252.3,295.5 255.9,296.0 259.6,296.0 263.3,295.7 266.9,295.1 270.5,294.3 274.1,293.6 277.7,292.9 281.3,292.4 285.0,292.1 288.7,292.1 292.3,292.6 295.8,293.7 299.1,295.4 302.0,297.7 304.6,300.2 307.0,303.0 309.2,306.0 311.2,309.0 313.1,312.2 315.0,315.3 316.8,318.5 318.5,321.8 320.2,325.0 321.9,328.3 323.7,331.5 325.4,334.8 327.2,338.0 329.0,341.2 330.9,344.3 332.8,347.4 334.9,350.5 337.1,353.4 339.5,356.2 342.0,358.9 344.7,361.4 347.7,363.6 350.8,365.4 354.2,366.8 357.8,367.8 361.4,368.4 365.1,368.7 368.7,368.8 372.4,368.6 376.1,368.3 379.7,367.8 383.3,367.3 387.0,366.6 390.6,366.0 394.2,365.3 397.8,364.6 401.4,363.9 405.0,363.2 408.6,362.6 412.3,362.0 415.9,361.5 419.6,361.2 423.2,360.9 426.9,360.9 430.6,361.0 434.2,361.4 437.8,362.1 441.4,363.0 444.8,364.4 448.1,366.0 451.2,368.0 454.1,370.3 456.8,372.7 459.3,375.4 461.7,378.2 464.0,381.0 466.2,384.0 468.3,387.0 470.3,390.1 472.2,393.3 474.0,396.4 475.8,399.6 477.6,402.9 479.3,406.1 481.0,409.4 482.6,412.7 484.3,416.0 485.9,419.3 487.5,422.6 489.1,425.9 490.7,429.2 492.3,432.5 493.9,435.8 495.5,439.1 497.1,442.4 498.7,445.7 500.4,449.0 502.1,452.2 503.8,455.5 505.6,458.7 507.4,461.9 509.3,465.0 511.3,468.1 513.3,471.2 515.5,474.2 517.7,477.1 520.1,479.9 522.6,482.6 525.3,485.0 528.2,487.3 531.3,489.3 534.6,490.9 538.1,492.2 541.6,493.3 545.1,494.2 548.7,494.9 552.4,495.4 556.0,495.8 559.7,496.0 563.4,496.0 567.0,495.9 570.7,495.6 574.4,495.2 578.0,494.7 581.6,494.1 585.2,493.3 588.8,492.5 592.3,491.6 595.9,490.5 599.4,489.4 602.8,488.2 606.3,486.9 609.7,485.5 613.0,484.0 616.4,482.5 619.6,480.8 622.9,479.1 626.1,477.2 629.2,475.3 632.2,473.2 635.2,471.1 638.2,468.9 641.0,466.6 643.9,464.3 646.6,461.9 649.3,459.4 652.0,456.8 654.6,454.2 657.2,451.6 659.7,448.9 662.1,446.2 664.5,443.4 666.9,440.6 669.2,437.7 671.5,434.8 673.7,431.9 675.9,428.9 678.0,425.9 680.1,422.9 682.1,419.9 684.1,416.8 686.0,413.6 687.9,410.5 689.8,407.3 691.6,404.1 693.3,400.9 695.0,397.6 696.7,394.4 698.3,391.1 699.9,387.7 701.4,384.4 702.9,381.0 704.3,377.7 705.7,374.2 707.0,370.8 708.3,367.4 709.6,363.9 710.9,360.5 712.1,357.0 713.2,353.5 714.4,350.0 715.5,346.5 716.6,343.0 717.6,339.5 718.7,336.0 719.7,332.4 720.6,328.9 721.6,325.3 722.5,321.8 723.4,318.2 724.2,314.6 725.0,311.1 725.8,307.5 726.6,303.9 727.4,300.3 728.1,296.7 728.8,293.1 729.4,289.5 730.1,285.8 730.7,282.2 731.3,278.6 731.8,275.0 732.3,271.3 732.8,267.7 733.3,264.0 733.7,260.4 734.1,256.7 734.5,253.1 734.8,249.4 735.1,245.8 735.3,242.1 735.5,238.4 735.7,234.7 735.9,231.1 735.9,227.4 736.0,223.7 736.0,220.1 735.9,216.4 735.8,212.7 735.7,209.0 735.5,205.4 735.2,201.7 734.9,198.1 734.5,194.4 734.1,190.7 733.7,187.1 733.2,183.4 732.7,179.8 732.2,176.2 731.6,172.5 731.0,168.9 730.4,165.3 729.7,161.7 729.0,158.1 728.3,154.5 727.5,150.9 726.7,147.3 725.9,143.7 725.0,140.2 724.1,136.6 723.1,133.0 722.2,129.5 721.1,126.0 720.1,122.4 719.0,118.9 717.9,115.4 716.7,112.0 715.5,108.5 714.2,105.0 712.9,101.6 711.6,98.2 710.1,94.8 708.7,91.4 707.1,88.1 705.6,84.8 703.9,81.5 702.2,78.2 700.4,75.0 698.5,71.9 696.5,68.8 694.5,65.7 692.3,62.8 690.0,59.9 687.6,57.1 685.1,54.5 682.4,52.0 679.5,49.6 676.5,47.5 673.4,45.7 670.0,44.1 666.6,42.9 663.0,41.9 659.4,41.1 655.8,40.6 652.2,40.3 648.5,40.1 644.8,40.1 641.1,40.1 637.5,40.3 633.8,40.6 630.1,41.0 626.5,41.4 622.8,41.8 619.2,42.4 615.6,42.9 611.9,43.5 608.3,44.0 604.7,44.6 601.1,45.2 597.4,45.7 593.8,46.3 590.1,46.8 586.5,47.2 582.8,47.6 579.2,47.9 575.5,48.1" fill="none" stroke="#343a3c" stroke-width="9" stroke-linejoin="round" stroke-linecap="round"/><text x="24" y="28" fill="#ff4d19" font-family="sans-serif" font-size="20">monza</text></svg>