<svg xmlns="http://www.w3.org/2000/svg" viewBox="0 0 760 520"><rect width="760" height="520" fill="#152018"/><polyline points="32.9,323.8 33.0,322.6 33.2,321.4 33.3,320.2 33.4,318.9 33.5,317.7 33.6,316.5 33.7,315.3 33.8,314.0 33.9,312.8 34.0,311.6 34.1,310.4 34.2,309.2 34.3,307.9 34.4,306.7 34.5,305.5 34.6,304.3 34.7,303.0 34.8,301.8 34.9,300.6 35.0,299.4 35.1,298.1 35.2,296.9 35.3,295.7 35.4,294.5 35.5,293.2 35.6,292.0 35.8,290.8 35.9,289.6 36.0,288.3 36.1,287.1 36.2,285.9 36.3,284.7 36.4,283.4 36.5,282.2 36.6,281.0 36.7,279.8 36.8,278.6 36.9,277.3 37.0,276.1 37.1,274.9 37.2,273.7 37.3,272.4 37.4,271.2 37.5,270.0 37.6,268.8 37.7,267.5 37.9,266.3 38.0,265.1 38.1,263.9 38.2,262.6 38.3,261.4 38.4,260.2 38.5,259.0 38.6,257.7 38.7,256.5 38.8,255.3 38.9,254.1 39.0,252.8 39.1,251.6 39.2,250.4 39.3,249.2 39.4,248.0 39.5,246.7 39.6,245.5 39.7,244.3 39.8,243.1 39.9,241.8 40.0,240.6 40.2,239.4 40.3,238.2 40.4,236.9 40.5,235.7 40.6,234.5 40.7,233.3 40.8,232.0 40.9,230.8 41.0,229.6 41.1,228.4 41.2,227.1 41.3,225.9 41.5,224.7 41.6,223.5 41.7,222.3 41.8,221.0 41.9,219.8 42.0,218.6 42.1,217.4 42.2,216.1 42.4,214.9 42.5,213.7 42.6,212.5 42.7,211.2 42.8,210.0 42.9,208.8 43.0,207.6 43.1,206.3 43.2,205.1 43.3,203.9 43.5,202.7 43.6,201.5 43.7,200.2 43.8,199.0 43.9,197.8 43.9,196.6 44.0,195.3 44.1,194.1 44.2,192.9 44.4,191.7 44.8,190.5 45.3,189.4 46.2,188.6 47.3,188.1 48.5,187.7 49.7,187.4 50.9,187.2 52.1,186.8 53.2,186.4 54.2,185.6 54.6,184.5 54.6,183.3 54.3,182.1 54.0,180.9 53.6,179.7 53.1,178.6 52.7,177.4 52.2,176.3 51.8,175.1 51.5,174.0 51.2,172.8 50.8,171.6 50.5,170.4 50.2,169.2 49.8,168.0 49.5,166.9 49.2,165.7 48.9,164.5 48.7,163.3 48.5,162.1 48.3,160.8 48.1,159.6 48.0,158.4 47.9,157.2 47.7,156.0 47.7,154.7 47.6,153.5 47.6,152.3 47.6,151.1 47.6,149.8 47.7,148.6 47.8,147.4 47.9,146.2 48.0,144.9 48.2,143.7 48.3,142.5 48.4,141.3 48.5,140.0 48.6,138.8 48.7,137.6 48.8,136.4 48.8,135.1 48.9,133.9 49.0,132.7 49.1,131.5 49.2,130.2 49.3,129.0 49.4,127.8 49.5,126.6 49.5,125.3 49.6,124.1 49.7,122.9 49.8,121.7 49.9,120.4 50.0,119.2 50.2,118.0 50.4,116.8 50.6,115.6 50.9,114.4 51.2,113.2 51.4,112.0 51.7,110.8 52.1,109.6 52.4,108.4 52.8,107.3 53.2,106.1 53.6,104.9 54.0,103.8 54.5,102.6 55.0,101.5 55.5,100.4 56.0,99.3 56.5,98.2 57.1,97.1 57.7,96.0 58.3,94.9 58.9,93.9 59.6,92.8 60.2,91.8 60.9,90.8 61.6,89.8 62.4,88.8 63.1,87.8 63.9,86.9 64.7,85.9 65.5,85.0 66.3,84.1 67.2,83.2 68.0,82.3 68.9,81.5 69.8,80.6 70.7,79.8 71.6,79.0 72.5,78.1 73.5,77.4 74.4,76.6 75.4,75.8 76.4,75.1 77.3,74.4 78.3,73.7 79.4,73.0 80.4,72.3 81.4,71.6 82.5,71.0 83.5,70.4 84.6,69.8 85.7,69.2 86.8,68.6 87.9,68.0 89.0,67.5 90.1,67.0 91.2,66.5 92.3,66.0 93.4,65.5 94.6,65.0 95.7,64.6 96.9,64.1 98.0,63.7 99.2,63.3 100.4,62.9 101.5,62.6 102.7,62.2 103.9,61.9 105.1,61.6 106.3,61.3 107.5,61.0 108.7,60.7 109.9,60.5 111.1,60.2 112.3,60.0 113.5,59.8 114.7,59.6 115.9,59.5 117.1,59.3 118.4,59.2 119.6,59.0 120.8,58.9 122.0,58.8 123.2,58.6 124.5,58.5 125.7,58.4 126.9,58.3 128.1,58.2 129.4,58.1 130.6,58.0 131.8,57.9 133.0,57.8 134.3,57.7 135.5,57.6 136.7,57.5 137.9,57.4 139.2,57.3 140.4,57.2 141.6,57.1 142.8,57.0 144.1,56.9 145.3,56.8 146.5,56.6 147.7,56.5 149.0,56.4 150.2,56.3 151.4,56.2 152.6,56.1 153.8,56.0 155.1,55.9 156.3,55.8 157.5,55.7 158.7,55.6 160.0,55.5 161.2,55.5 162.4,55.4 163.6,55.3 164.9,55.2 166.1,55.1 167.3,55.1 168.6,55.0 169.8,54.9 171.0,54.8 172.2,54.8 173.5,54.7 174.7,54.6 175.9,54.5 177.1,54.5 178.4,54.4 179.6,54.3 180.8,54.3 182.0,54.2 183.3,54.1 184.5,54.0 185.7,54.0 186.9,53.9 188.2,53.8 189.4,53.7 190.6,53.7 191.9,53.7 193.1,53.7 194.3,53.7 195.5,53.8 196.8,53.7 198.0,53.7 199.2,53.5 200.4,53.2 201.6,52.8 202.6,52.2 203.6,51.5 204.6,50.7 205.5,49.9 206.4,49.1 207.3,48.3 208.3,47.5 209.3,46.8 210.4,46.2 211.4,45.5 212.5,44.9 213.5,44.2 214.6,43.6 215.7,43.1 216.8,42.6 217.9,42.1 219.1,41.7 220.3,41.3 221.5,41.0 222.7,40.8 223.9,40.5 225.1,40.3 226.3,40.0 227.5,39.7 228.6,39.4 229.8,39.0 231.0,38.7 232.2,38.3 233.3,37.9 234.5,37.5 235.7,37.1 236.8,36.7 238.0,36.3 239.1,35.9 240.3,35.6 241.5,35.2 242.6,34.8 243.8,34.4 245.0,34.0 246.1,33.6 247.3,33.2 248.5,32.8 249.6,32.4 250.8,32.1 252.0,31.7 253.1,31.3 254.3,30.9 255.5,30.5 256.6,30.1 257.8,29.7 259.0,29.3 260.1,28.9 261.3,28.5 262.4,28.1 263.6,27.7 264.7,27.3 265.9,26.8 267.0,26.4 268.2,26.0 269.4,25.7 270.6,25.4 271.8,25.1 273.0,24.9 274.2,24.6 275.4,24.4 276.6,24.2 277.8,24.1 279.0,24.0 280.3,24.0 281.5,24.2 282.7,24.4 283.9,24.8 285.0,25.3 286.1,25.9 287.1,26.5 288.1,27.2 289.1,28.0 290.0,28.8 290.8,29.7 291.6,30.7 292.3,31.7 292.8,32.8 293.2,34.0 293.6,35.1 293.9,36.3 294.2,37.5 294.4,38.7 294.6,39.9 294.8,41.1 295.0,42.4 295.2,43.6 295.3,44.8 295.4,46.0 295.5,47.2 295.6,48.5 295.7,49.7 295.7,50.9 295.8,52.1 296.0,53.4 296.1,54.6 296.2,55.8 296.3,57.0 296.4,58.3 296.5,59.5 296.7,60.7 296.8,61.9 296.9,63.2 297.0,64.4 297.2,65.6 297.3,66.8 297.4,68.0 297.5,69.3 297.6,70.5 297.8,71.7 297.9,72.9 298.0,74.2 298.1,75.4 298.3,76.6 298.5,77.8 298.7,79.0 298.8,80.2 299.0,81.5 299.1,82.7 299.2,83.9 299.3,85.1 299.2,86.4 299.1,87.6 299.0,88.8 298.9,90.0 298.8,91.2 298.5,92.5 298.2,93.6 297.8,94.8 297.3,95.9 296.6,96.9 295.7,97.7 294.7,98.5 293.6,99.1 292.5,99.6 291.4,100.1 290.3,100.6 289.1,101.1 288.0,101.6 286.9,102.2 285.8,102.8 284.8,103.3 283.7,103.9 282.6,104.5 281.5,105.1 280.4,105.7 279.3,106.2 278.3,106.8 277.2,107.4 276.1,108.0 275.0,108.6 273.9,109.1 272.8,109.7 271.8,110.3 270.7,110.9 269.6,111.5 268.5,112.1 267.4,112.6 266.4,113.2 265.3,113.8 264.2,114.4 263.1,115.0 262.1,115.6 261.0,116.2 259.9,116.8 258.9,117.4 257.8,118.0 256.7,118.6 255.6,119.2 254.6,119.8 253.5,120.4 252.4,121.0 251.3,121.6 250.3,122.2 249.2,122.8 248.1,123.4 247.0,124.0 246.0,124.6 244.9,125.2 243.8,125.8 242.7,126.3 241.7,126.9 240.6,127.5 239.5,128.1 238.4,128.7 237.4,129.3 236.3,129.9 235.2,130.5 234.1,131.1 233.0,131.7 232.0,132.3 230.9,132.9 229.8,133.5 228.8,134.1 227.7,134.8 226.7,135.4 225.7,136.1 224.7,136.8 223.7,137.5 222.7,138.2 221.7,138.9 220.7,139.7 219.7,140.4 218.7,141.2 217.8,141.9 216.8,142.7 215.9,143.5 214.9,144.2 214.0,145.0 213.0,145.8 212.1,146.6 211.2,147.4 210.2,148.2 209.3,149.0 208.3,149.8 207.4,150.6 206.5,151.4 205.5,152.2 204.6,153.0 203.7,153.8 202.7,154.6 201.8,155.4 200.9,156.2 199.9,157.0 199.0,157.8 198.1,158.6 197.1,159.4 196.2,160.2 195.3,161.0 194.3,161.8 193.4,162.6 192.5,163.4 191.5,164.2 190.6,165.0 189.7,165.8 188.8,166.6 187.8,167.4 186.9,168.2 186.0,169.0 185.1,169.8 184.1,170.6 183.2,171.5 182.3,172.3 181.4,173.1 180.5,173.9 179.6,174.8 178.7,175.6 177.8,176.4 176.8,177.2 175.9,178.0 175.0,178.9 174.1,179.7 173.2,180.5 172.3,181.3 171.3,182.1 170.4,182.9 169.5,183.8 168.6,184.6 167.7,185.4 166.7,186.2 165.8,187.0 164.9,187.8 164.0,188.6 163.0,189.4 162.1,190.2 161.2,191.0 160.3,191.8 159.3,192.7 158.4,193.5 157.5,194.3 156.6,195.1 155.6,195.9 154.7,196.7 153.8,197.5 152.8,198.3 151.9,199.1 151.0,199.9 150.1,200.7 149.1,201.5 148.2,202.3 147.3,203.1 146.4,204.0 145.4,204.8 144.5,205.6 143.6,206.4 142.7,207.2 141.7,208.0 140.8,208.8 139.9,209.6 139.0,210.4 138.0,211.2 137.1,212.0 136.2,212.8 135.3,213.6 134.3,214.5 133.4,215.3 132.5,216.1 131.6,216.9 130.6,217.7 129.7,218.5 128.8,219.3 127.9,220.1 126.9,220.9 126.0,221.7 125.1,222.5 124.1,223.3 123.2,224.1 122.2,224.8 121.2,225.6 120.3,226.3 119.3,227.1 118.4,227.9 117.5,228.8 116.7,229.7 116.0,230.7 115.4,231.8 114.8,232.9 114.2,234.0 113.8,235.1 113.3,236.2 113.0,237.4 112.7,238.6 112.4,239.8 112.3,241.0 112.3,242.3 112.5,243.5 112.6,244.7 112.8,245.9 113.0,247.1 113.1,248.4 113.2,249.6 113.1,250.8 112.8,252.0 112.5,253.2 112.1,254.4 111.7,255.5 111.2,256.6 110.6,257.7 110.1,258.8 109.4,259.9 108.7,260.9 108.0,261.9 107.1,262.7 106.2,263.5 105.2,264.3 104.3,265.0 103.3,265.8 102.3,266.5 101.4,267.4 100.6,268.3 99.9,269.3 99.4,270.4 98.9,271.5 98.5,272.7 98.1,273.9 97.8,275.1 97.5,276.2 97.2,277.4 97.0,278.6 96.7,279.8 96.5,281.1 96.3,282.3 96.1,283.5 96.0,284.7 95.9,285.9 95.8,287.2 95.7,288.4 95.5,289.6 95.4,290.8 95.3,292.0 95.1,293.3 95.0,294.5 94.8,295.7 94.7,296.9 94.5,298.1 94.4,299.4 94.2,300.6 94.1,301.8 93.9,303.0 93.8,304.2 93.6,305.5 93.5,306.7 93.3,307.9 93.2,309.1 93.1,310.3 92.9,311.6 92.8,312.8 92.6,314.0 92.5,315.2 92.4,316.4 92.3,317.7 92.1,318.9 92.0,320.1 91.9,321.3 91.8,322.6 91.6,323.8 91.5,325.0 91.4,326.2 91.2,327.4 91.1,328.7 91.0,329.9 90.9,331.1 90.7,332.3 90.6,333.5 90.5,334.8 90.4,336.0 90.2,337.2 90.1,338.4 90.0,339.7 89.8,340.9 89.7,342.1 89.6,343.3 89.5,344.5 89.3,345.8 89.2,347.0 89.1,348.2 89.0,349.4 88.8,350.7 88.7,351.9 88.6,353.1 88.4,354.3 88.3,355.5 88.2,356.8 88.1,358.0 87.9,359.2 87.8,360.4 87.7,361.7 87.6,362.9 87.4,364.1 87.3,365.3 87.2,366.5 87.0,367.8 86.9,369.0 86.8,370.2 86.7,371.4 86.5,372.6 86.4,373.9 86.3,375.1 86.2,376.3 86.0,377.5 85.9,378.8 85.8,380.0 85.6,381.2 85.5,382.4 85.4,383.6 85.3,384.9 85.1,386.1 85.0,387.3 84.9,388.5 84.8,389.8 84.6,391.0 84.5,392.2 84.4,393.4 84.2,394.6 84.1,395.9 84.0,397.1 83.9,398.3 83.7,399.5 83.6,400.8 83.5,402.0 83.4,403.2 83.2,404.4 83.1,405.6 83.0,406.9 82.8,408.1 82.7,409.3 82.6,410.5 82.5,411.7 82.3,413.0 82.2,414.2 82.1,415.4 82.0,416.6 81.8,417.9 81.7,419.1 81.6,420.3 81.4,421.5 81.3,422.7 81.2,424.0 81.1,425.2 80.9,426.4 80.8,427.6 80.7,428.9 80.6,430.1 80.4,431.3 80.3,432.5 80.2,433.7 80.1,435.0 79.9,436.2 79.8,437.4 79.7,438.6 79.5,439.9 79.4,441.1 79.3,442.3 79.2,443.5 79.0,444.7 78.9,446.0 78.8,447.2 78.7,448.4 78.5,449.6 78.4,450.8 78.3,452.1 78.1,453.3 78.0,454.5 77.9,455.7 77.8,457.0 77.6,458.2 77.5,459.4 77.4,460.6 77.3,461.8 77.1,463.1 77.0,464.3 76.9,465.5 76.7,466.7 76.6,468.0 76.5,469.2 76.4,470.4 76.3,471.6 76.2,472.8 76.1,474.1 76.1,475.3 76.0,476.5 75.8,477.7 75.7,479.0 75.4,480.2 75.1,481.4 74.7,482.5 74.3,483.7 73.9,484.8 73.4,486.0 72.9,487.1 72.3,488.1 71.6,489.2 70.8,490.1 70.0,491.0 69.1,491.8 68.1,492.6 67.1,493.3 66.0,493.9 64.9,494.4 63.8,494.9 62.6,495.3 61.4,495.6 60.2,495.8 59.0,496.0 57.8,496.0 56.5,495.9 55.3,495.8 54.1,495.6 52.9,495.4 51.7,495.0 50.5,494.7 49.4,494.3 48.2,493.9 47.1,493.4 46.0,492.9 44.9,492.3 43.8,491.7 42.8,491.0 41.8,490.3 40.8,489.6 39.8,488.8 38.9,488.0 38.0,487.2 37.2,486.3 36.4,485.4 35.6,484.4 34.8,483.5 34.1,482.5 33.4,481.5 32.7,480.4 32.1,479.4 31.5,478.3 30.9,477.2 30.4,476.1 29.9,475.0 29.4,473.9 28.9,472.7 28.5,471.6 28.1,470.4 27.7,469.2 27.4,468.1 27.0,466.9 26.7,465.7 26.4,464.5 26.2,463.3 25.9,462.1 25.7,460.9 25.5,459.7 25.3,458.5 25.2,457.2 25.0,456.0 24.9,454.8 24.8,453.6 24.8,452.3 24.7,451.1 24.7,449.9 24.6,448.7 24.6,447.4 24.5,446.2 24.5,445.0 24.5,443.8 24.5,442.5 24.4,441.3 24.4,440.1 24.4,438.8 24.4,437.6 24.4,436.4 24.3,435.2 24.3,433.9 24.3,432.7 24.2,431.5 24.2,430.2 24.2,429.0 24.2,427.8 24.1,426.6 24.1,425.3 24.1,424.1 24.1,422.9 24.0,421.6 24.0,420.4 24.0,419.2 24.0,418.0 24.0,416.7 24.0,415.5 24.0,414.3 24.0,413.0 24.1,411.8 24.1,410.6 24.1,409.4 24.2,408.1 24.2,406.9 24.3,405.7 24.4,404.5 24.4,403.2 24.5,402.0 24.6,400.8 24.7,399.6 24.8,398.3 24.9,397.1 25.0,395.9 25.1,394.7 25.3,393.4 25.4,392.2 25.5,391.0 25.6,389.8 25.7,388.5 25.9,387.3 26.0,386.1 26.1,384.9 26.3,383.7 26.4,382.4 26.5,381.2 26.7,380.0 26.8,378.8 26.9,377.6 27.0,376.3 27.2,375.1 27.3,373.9 27.4,372.7 27.5,371.4 27.7,370.2 27.8,369.0 27.9,367.8 28.1,366.6 28.2,365.3 28.3,364.1 28.4,362.9 28.6,361.7 28.7,360.4 28.8,359.2 29.0,358.0 29.1,356.8 29.2,355.6 29.3,354.3 29.5,353.1 29.6,351.9 29.7,350.7 29.8,349.4 30.0,348.2 30.1,347.0 30.2,345.8 30.4,344.6 30.5,343.3 30.7,342.1 30.8,340.9 31.0,339.7 31.1,338.5 31.3,337.2 31.4,336.0 31.6,334.8 31.7,333.6 31.9,332.4 32.0,331.2 32.2,329.9 32.3,328.7 32.5,327.5 32.6,326.3 32.8,325.1" fill="none" stroke="#f3e8c8" stroke-width="12" stroke-linejoin="round" stroke-linecap="round"/><polyline points="32.9,323.8 33.0,322.6 33.2,321.4 33.3,320.2 33.4,318.9 33.5,317.7 33.6,316.5 33.7,315.3 33.8,314.0 33.9,312.8 34.0,311.6 34.1,310.4 34.2,309.2 34.3,307.9 34.4,306.7 34.5,305.5 34.6,304.3 34.7,303.0 34.8,301.8 34.9,300.6 35.0,299.4 35.1,298.1 35.2,296.9 35.3,295.7 35.4,294.5 35.5,293.2 35.6,292.0 35.8,290.8 35.9,289.6 36.0,288.3 36.1,287.1 36.2,285.9 36.3,284.7 36.4,283.4 36.5,282.2 36.6,281.0 36.7,279.8 36.8,278.6 36.9,277.3 37.0,276.1 37.1,274.9 37.2,273.7 37.3,272.4 37.4,271.2 37.5,270.0 37.6,268.8 37.7,267.5 37.9,266.3 38.0,265.1 38.1,263.9 38.2,262.6 38.3,261.4 38.4,260.2 38.5,259.0 38.6,257.7 38.7,256.5 38.8,255.3 38.9,254.1 39.0,252.8 39.1,251.6 39.2,250.4 39.3,249.2 39.4,248.0 39.5,246.7 39.6,245.5 39.7,244.3 39.8,243.1 39.9,241.8 40.0,240.6 40.2,239.4 40.3,238.2 40.4,236.9 40.5,235.7 40.6,234.5 40.7,233.3 40.8,232.0 40.9,230.8 41.0,229.6 41.1,228.4 41.2,227.1 41.3,225.9 41.5,224.7 41.6,223.5 41.7,222.3 41.8,221.0 41.9,219.8 42.0,218.6 42.1,217.4 42.2,216.1 42.4,214.9 42.5,213.7 42.6,212.5 42.7,211.2 42.8,210.0 42.9,208.8 43.0,207.6 43.1,206.3 43.2,205.1 43.3,203.9 43.5,202.7 43.6,201.5 43.7,200.2 43.8,199.0 43.9,197.8 43.9,196.6 44.0,195.3 44.1,194.1 44.2,192.9 44.4,191.7 44.8,190.5 45.3,189.4 46.2,188.6 47.3,188.1 48.5,187.7 49.7,187.4 50.9,187.2 52.1,186.8 53.2,186.4 54.2,185.6 54.6,184.5 54.6,183.3 54.3,182.1 54.0,180.9 53.6,179.7 53.1,178.6 52.7,177.4 52.2,176.3 51.8,175.1 51.5,174.0 51.2,172.8 50.8,171.6 50.5,170.4 50.2,169.2 49.8,168.0 49.5,166.9 49.2,165.7 48.9,164.5 48.7,163.3 48.5,162.1 48.3,160.8 48.1,159.6 48.0,158.4 47.9,157.2 47.7,156.0 47.7,154.7 47.6,153.5 47.6,152.3 47.6,151.1 47.6,149.8 47.7,148.6 47.8,147.4 47.9,146.2 48.0,144.9 48.2,143.7 48.3,142.5 48.4,141.3 48.5,140.0 48.6,138.8 48.7,137.6 48.8,136.4 48.8,135.1 48.9,133.9 49.0,132.7 49.1,131.5 49.2,130.2 49.3,129.0 49.4,127.8 49.5,126.6 49.5,125.3 49.6,124.1 49.7,122.9 49.8,121.7 49.9,120.4 50.0,119.2 50.2,118.0 50.4,116.8 50.6,115.6 50.9,114.4 51.2,113.2 51.4,112.0 51.7,110.8 52.1,109.6 52.4,108.4 52.8,107.3 53.2,106.1 53.6,104.9 54.0,103.8 54.5,102.6 55.0,101.5 55.5,100.4 56.0,99.3 56.5,98.2 57.1,97.1 57.7,96.0 58.3,94.9 58.9,93.9 59.6,92.8 60.2,91.8 60.9,90.8 61.6,89.8 62.4,88.8 63.1,87.8 63.9,86.9 64.7,85.9 65.5,85.0 66.3,84.1 67.2,83.2 68.0,82.3 68.9,81.5 69.8,80.6 70.7,79.8 71.6,79.0 72.5,78.1 73.5,77.4 74.4,76.6 75.4,75.8 76.4,75.1 77.3,74.4 78.3,73.7 79.4,73.0 80.4,72.3 81.4,71.6 82.5,71.0 83.5,70.4 84.6,69.8 85.7,69.2 86.8,68.6 87.9,68.0 89.0,67.5 90.1,67.0 91.2,66.5 92.3,66.0 93.4,65.5 94.6,65.0 95.7,64.6 96.9,64.1 98.0,63.7 99.2,63.3 100.4,62.9 101.5,62.6 102.7,62.2 103.9,61.9 105.1,61.6 106.3,61.3 107.5,61.0 108.7,60.7 109.9,60.5 111.1,60.2 112.3,60.0 113.5,59.8 114.7,59.6 115.9,59.5 117.1,59.3 118.4,59.2 119.6,59.0 120.8,58.9 122.0,58.8 123.2,58.6 124.5,58.5 125.7,58.4 126.9,58.3 128.1,58.2 129.4,58.1 130.6,58.0 131.8,57.9 133.0,57.8 134.3,57.7 135.5,57.6 136.7,57.5 137.9,57.4 139.2,57.3 140.4,57.2 141.6,57.1 142.8,57.0 144.1,56.9 145.3,56.8 146.5,56.6 147.7,56.5 149.0,56.4 150.2,56.3 151.4,56.2 152.6,56.1 153.8,56.0 155.1,55.9 156.3,55.8 157.5,55.7 158.7,55.6 160.0,55.5 161.2,55.5 162.4,55.4 163.6,55.3 164.9,55.2 166.1,55.1 167.3,55.1 168.6,55.0 169.8,54.9 171.0,54.8 172.2,54.8 173.5,54.7 174.7,54.6 175.9,54.5 177.1,54.5 178.4,54.4 179.6,54.3 180.8,54.3 182.0,54.2 183.3,54.1 184.5,54.0 185.7,54.0 186.9,53.9 188.2,53.8 189.4,53.7 190.6,53.7 191.9,53.7 193.1,53.7 194.3,53.7 195.5,53.8 196.8,53.7 198.0,53.7 199.2,53.5 200.4,53.2 201.6,52.8 202.6,52.2 203.6,51.5 204.6,50.7 205.5,49.9 206.4,49.1 207.3,48.3 208.3,47.5 209.3,46.8 210.4,46.2 211.4,45.5 212.5,44.9 213.5,44.2 214.6,43.6 215.7,43.1 216.8,42.6 217.9,42.1 219.1,41.7 220.3,41.3 221.5,41.0 222.7,40.8 223.9,40.5 225.1,40.3 226.3,40.0 227.5,39.7 228.6,39.4 229.8,39.0 231.0,38.7 232.2,38.3 233.3,37.9 234.5,37.5 235.7,37.1 236.8,36.7 238.0,36.3 239.1,35.9 240.3,35.6 241.5,35.2 242.6,34.8 243.8,34.4 245.0,34.0 246.1,33.6 247.3,33.2 248.5,32.8 249.6,32.4 250.8,32.1 252.0,31.7 253.1,31.3 254.3,30.9 255.5,30.5 256.6,30.1 257.8,29.7 259.0,29.3 260.1,28.9 261.3,28.5 262.4,28.1 263.6,27.7 264.7,27.3 265.9,26.8 267.0,26.4 268.2,26.0 269.4,25.7 270.6,25.4 271.8,25.1 273.0,24.9 274.2,24.6 275.4,24.4 276.6,24.2 277.8,24.1 279.0,24.0 280.3,24.0 281.5,24.2 282.7,24.4 283.9,24.8 285.0,25.3 286.1,25.9 287.1,26.5 288.1,27.2 289.1,28.0 290.0,28.8 290.8,29.7 291.6,30.7 292.3,31.7 292.8,32.8 293.2,34.0 293.6,35.1 293.9,36.3 294.2,37.5 294.4,38.7 294.6,39.9 294.8,41.1 295.0,42.4 295.2,43.6 295.3,44.8 295.4,46.0 295.5,47.2 295.6,48.5 295.7,49.7 295.7,50.9 295.8,52.1 296.0,53.4 296.1,54.6 296.2,55.8 296.3,57.0 296.4,58.3 296.5,59.5 296.7,60.7 296.8,61.9 296.9,63.2 297.0,64.4 297.2,65.6 297.3,66.8 297.4,68.0 297.5,69.3 297.6,70.5 297.8,71.7 297.9,72.9 298.0,74.2 298.1,75.4 298.3,76.6 298.5,77.8 298.7,79.0 298.8,80.2 299.0,81.5 299.1,82.7 299.2,83.9 299.3,85.1 299.2,86.4 299.1,87.6 299.0,88.8 298.9,90.0 298.8,91.2 298.5,92.5 298.2,93.6 297.8,94.8 297.3,95.9 296.6,96.9 295.7,97.7 294.7,98.5 293.6,99.1 292.5,99.6 291.4,100.1 290.3,100.6 289.1,101.1 288.0,101.6 286.9,102.2 285.8,102.8 284.8,103.3 283.7,103.9 282.6,104.5 281.5,105.1 280.4,105.7 279.3,106.2 278.3,106.8 277.2,107.4 276.1,108.0 275.0,108.6 273.9,109.1 272.8,109.7 271.8,110.3 270.7,110.9 269.6,111.5 268.5,112.1 267.4,112.6 266.4,113.2 265.3,113.8 264.2,114.4 263.1,115.0 262.1,115.6 261.0,116.2 259.9,116.8 258.9,117.4 257.8,118.0 256.7,118.6 255.6,119.2 254.6,119.8 253.5,120.4 252.4,121.0 251.3,121.6 250.3,122.2 249.2,122.8 248.1,123.4 247.0,124.0 246.0,124.6 244.9,125.2 243.8,125.8 242.7,126.3 241.7,126.9 240.6,127.5 239.5,128.1 238.4,128.7 237.4,129.3 236.3,129.9 235.2,130.5 234.1,131.1 233.0,131.7 232.0,132.3 230.9,132.9 229.8,133.5 228.8,134.1 227.7,134.8 226.7,135.4 225.7,136.1 224.7,136.8 223.7,137.5 222.7,138.2 221.7,138.9 220.7,139.7 219.7,140.4 218.7,141.2 217.8,141.9 216.8,142.7 215.9,143.5 214.9,144.2 214.0,145.0 213.0,145.8 212.1,146.6 211.2,147.4 210.2,148.2 209.3,149.0 208.3,149.8 207.4,150.6 206.5,151.4 205.5,152.2 204.6,153.0 203.7,153.8 202.7,154.6 201.8,155.4 200.9,156.2 199.9,157.0 199.0,157.8 198.1,158.6 197.1,159.4 196.2,160.2 195.3,161.0 194.3,161.8 193.4,162.6 192.5,163.4 191.5,164.2 190.6,165.0 189.7,165.8 188.8,166.6 187.8,167.4 186.9,168.2 186.0,169.0 185.1,169.8 184.1,170.6 183.2,171.5 182.3,172.3 181.4,173.1 180.5,173.9 179.6,174.8 178.7,175.6 177.8,176.4 176.8,177.2 175.9,178.0 175.0,178.9 174.1,179.7 173.2,180.5 172.3,181.3 171.3,182.1 170.4,182.9 169.5,183.8 168.6,184.6 167.7,185.4 166.7,186.2 165.8,187.0 164.9,187.8 164.0,188.6 163.0,189.4 162.1,190.2 161.2,191.0 160.3,191.8 159.3,192.7 158.4,193.5 157.5,194.3 156.6,195.1 155.6,195.9 154.7,196.7 153.8,197.5 152.8,198.3 151.9,199.1 151.0,199.9 150.1,200.7 149.1,201.5 148.2,202.3 147.3,203.1 146.4,204.0 145.4,204.8 144.5,205.6 143.6,206.4 142.7,207.2 141.7,208.0 140.8,208.8 139.9,209.6 139.0,210.4 138.0,211.2 137.1,212.0 136.2,212.8 135.3,213.6 134.3,214.5 133.4,215.3 132.5,216.1 131.6,216.9 130.6,217.7 129.7,218.5 128.8,219.3 127.9,220.1 126.9,220.9 126.0,221.7 125.1,222.5 124.1,223.3 123.2,224.1 122.2,224.8 121.2,225.6 120.3,226.3 119.3,227.1 118.4,227.9 117.5,228.8 116.7,229.7 116.0,230.7 115.4,231.8 114.8,232.9 114.2,234.0 113.8,235.1 113.3,236.2 113.0,237.4 112.7,238.6 112.4,239.8 112.3,241.0 112.3,242.3 112.5,243.5 112.6,244.7 112.8,245.9 113.0,247.1 113.1,248.4 113.2,249.6 113.1,250.8 112.8,252.0 112.5,253.2 112.1,254.4 111.7,255.5 111.2,256.6 110.6,257.7 110.1,258.8 109.4,259.9 108.7,260.9 108.0,261.9 107.1,262.7 106.2,263.5 105.2,264.3 104.3,265.0 103.3,265.8 102.3,266.5 101.4,267.4 100.6,268.3 99.9,269.3 99.4,270.4 98.9,271.5 98.5,272.7 98.1,273.9 97.8,275.1 97.5,276.2 97.2,277.4 97.0,278.6 96.7,279.8 96.5,281.1 96.3,282.3 96.1,283.5 96.0,284.7 95.9,285.9 95.8,287.2 95.7,288.4 95.5,289.6 95.4,290.8 95.3,292.0 95.1,293.3 95.0,294.5 94.8,295.7 94.7,296.9 94.5,298.1 94.4,299.4 94.2,300.6 94.1,301.8 93.9,303.0 93.8,304.2 93.6,305.5 93.5,306.7 93.3,307.9 93.2,309.1 93.1,310.3 92.9,311.6 92.8,312.8 92.6,314.0 92.5,315.2 92.4,316.4 92.3,317.7 92.1,318.9 92.0,320.1 91.9,321.3 91.8,322.6 91.6,323.8 91.5,325.0 91.4,326.2 91.2,327.4 91.1,328.7 91.0,329.9 90.9,331.1 90.7,332.3 90.6,333.5 90.5,334.8 90.4,336.0 90.2,337.2 90.1,338.4 90.0,339.7 89.8,340.9 89.7,342.1 89.6,343.3 89.5,344.5 89.3,345.8 89.2,347.0 89.1,348.2 89.0,349.4 88.8,350.7 88.7,351.9 88.6,353.1 88.4,354.3 88.3,355.5 88.2,356.8 88.1,358.0 87.9,359.2 87.8,360.4 87.7,361.7 87.6,362.9 87.4,364.1 87.3,365.3 87.2,366.5 87.0,367.8 86.9,369.0 86.8,370.2 86.7,371.4 86.5,372.6 86.4,373.9 86.3,375.1 86.2,376.3 86.0,377.5 85.9,378.8 85.8,380.0 85.6,381.2 85.5,382.4 85.4,383.6 85.3,384.9 85.1,386.1 85.0,387.3 84.9,388.5 84.8,389.8 84.6,391.0 84.5,392.2 84.4,393.4 84.2,394.6 84.1,395.9 84.0,397.1 83.9,398.3 83.7,399.5 83.6,400.8 83.5,402.0 83.4,403.2 83.2,404.4 83.1,405.6 83.0,406.9 82.8,408.1 82.7,409.3 82.6,410.5 82.5,411.7 82.3,413.0 82.2,414.2 82.1,415.4 82.0,416.6 81.8,417.9 81.7,419.1 81.6,420.3 81.4,421.5 81.3,422.7 81.2,424.0 81.1,425.2 80.9,426.4 80.8,427.6 80.7,428.9 80.6,430.1 80.4,431.3 80.3,432.5 80.2,433.7 80.1,435.0 79.9,436.2 79.8,437.4 79.7,438.6 79.5,439.9 79.4,441.1 79.3,442.3 79.2,443.5 79.0,444.7 78.9,446.0 78.8,447.2 78.7,448.4 78.5,449.6 78.4,450.8 78.3,452.1 78.1,453.3 78.0,454.5 77.9,455.7 77.8,457.0 77.6,458.2 77.5,459.4 77.4,460.6 77.3,461.8 77.1,463.1 77.0,464.3 76.9,465.5 76.7,466.7 76.6,468.0 76.5,469.2 76.4,470.4 76.3,471.6 76.2,472.8 76.1,474.1 76.1,475.3 76.0,476.5 75.8,477.7 75.7,479.0 75.4,480.2 75.1,481.4 74.7,482.5 74.3,483.7 73.9,484.8 73.4,486.0 72.9,487.1 72.3,488.1 71.6,489.2 70.8,490.1 70.0,491.0 69.1,491.8 68.1,492.6 67.1,493.3 66.0,493.9 64.9,494.4 63.8,494.9 62.6,495.3 61.4,495.6 60.2,495.8 59.0,496.0 57.8,496.0 56.5,495.9 55.3,495.8 54.1,495.6 52.9,495.4 51.7,495.0 50.5,494.7 49.4,494.3 48.2,493.9 47.1,493.4 46.0,492.9 44.9,492.3 43.8,491.7 42.8,491.0 41.8,490.3 40.8,489.6 39.8,488.8 38.9,488.0 38.0,487.2 37.2,486.3 36.4,485.4 35.6,484.4 34.8,483.5 34.1,482.5 33.4,481.5 32.7,480.4 32.1,479.4 31.5,478.3 30.9,477.2 30.4,476.1 29.9,475.0 29.4,473.9 28.9,472.7 28.5,471.6 28.1,470.4 27.7,469.2 27.4,468.1 27.0,466.9 26.7,465.7 26.4,464.5 26.2,463.3 25.9,462.1 25.7,460.9 25.5,459.7 25.3,458.5 25.2,457.2 25.0,456.0 24.9,454.8 24.8,453.6 24.8,452.3 24.7,451.1 24.7,449.9 24.6,448.7 24.6,447.4 24.5,446.2 24.5,445.0 24.5,443.8 24.5,442.5 24.4,441.3 24.4,440.1 24.4,438.8 24.4,437.6 24.4,436.4 24.3,435.2 24.3,433.9 24.3,432.7 24.2,431.5 24.2,430.2 24.2,429.0 24.2,427.8 24.1,426.6 24.1,425.3 24.1,424.1 24.1,422.9 24.0,421.6 24.0,420.4 24.0,419.2 24.0,418.0 24.0,416.7 24.0,415.5 24.0,414.3 24.0,413.0 24.1,411.8 24.1,410.6 24.1,409.4 24.2,408.1 24.2,406.9 24.3,405.7 24.4,404.5 24.4,403.2 24.5,402.0 24.6,400.8 24.7,399.6 24.8,398.3 24.9,397.1 25.0,395.9 25.1,394.7 25.3,393.4 25.4,392.2 25.5,391.0 25.6,389.8 25.7,388.5 25.9,387.3 26.0,386.1 26.1,384.9 26.3,383.7 26.4,382.4 26.5,381.2 26.7,380.0 26.8,378.8 26.9,377.6 27.0,376.3 27.2,375.1 27.3,373.9 27.4,372.7 27.5,371.4 27.7,370.2 27.8,369.0 27.9,367.8 28.1,366.6 28.2,365.3 28.3,364.1 28.4,362.9 28.6,361.7 28.7,360.4 28.8,359.2 29.0,358.0 29.1,356.8 29.2,355.6 29.3,354.3 29.5,353.1 29.6,351.9 29.7,350.7 29.8,349.4 30.0,348.2 30.1,347.0 30.2,345.8 30.4,344.6 30.5,343.3 30.7,342.1 30.8,340.9 31.0,339.7 31.1,338.5 31.3,337.2 31.4,336.0 31.6,334.8 31.7,333.6 31.9,332.4 32.0,331.2 32.2,329.9 32.3,328.7 32.5,327.5 32.6,326.3 32.8,325.1" fill="none" stroke="#343a3c" stroke-width="9" stroke-linejoin="round" stroke-linecap="round"/><text x="24" y="28" fill="#ff4d19" font-family="sans-serif" font-size="20">monza</text></svg>